<svg xmlns="http://www.w3.org/2000/svg" viewBox="0 0 64 64">
  <rect width="64" height="64" fill="#0E4A52"/>
  <g fill="#FFFFFF">
    <rect x="7" y="26" width="12" height="3.4" rx="1.7"/>
    <rect x="5" y="32.5" width="9" height="3.4" rx="1.7"/>
    <rect x="8" y="39" width="6.5" height="3.4" rx="1.7"/>
    <rect x="21" y="20" width="25" height="26" rx="4"/>
    <path d="M46 26h5.6c2.6 0 5 1.4 6.3 3.7l1.8 3.2c1.3.6 2.3 2 2.3 3.6v5c0 2.5-2 4.5-4.5 4.5H46Z"/>
    <path d="M50.5 17.5a3.2 3.2 0 0 1 6.4 0v.5h-6.4Z"/>
    <rect x="52.6" y="9.5" width="2.2" height="5" rx="1.1"/>
    <rect x="45.6" y="11" width="2.2" height="5" rx="1.1" transform="rotate(-40 46.7 13.5)"/>
    <rect x="59.6" y="11" width="2.2" height="5" rx="1.1" transform="rotate(40 60.7 13.5)"/>
  </g>
  <g fill="#0E4A52">
    <rect x="30.5" y="24" width="5" height="12.5" rx="1.4"/>
    <rect x="26.75" y="27.75" width="12.5" height="5" rx="1.4"/>
    <rect x="22.5" y="38.5" width="22" height="2.6" rx="1.3"/>
    <rect x="48.5" y="28.5" width="8" height="6.5" rx="1.8"/>
    <circle cx="29" cy="46.5" r="7"/>
    <circle cx="47.5" cy="46.5" r="7"/>
  </g>
  <circle cx="29" cy="46.5" r="5" fill="#FFFFFF"/>
  <circle cx="29" cy="46.5" r="2" fill="#0E4A52"/>
  <circle cx="47.5" cy="46.5" r="5" fill="#FFFFFF"/>
  <circle cx="47.5" cy="46.5" r="2" fill="#0E4A52"/>
</svg>
